<svg width="150" height="280" viewBox="0 0 150 280" fill="none"
    xmlns="http://www.w3.org/2000/svg">
    <path d="M79.4259 209.281C78.9474 216.473 74.1627 223.185 74.1627 223.185C74.1627 223.185 74.1627 229.897 73.445 237.329C72.7273 244.76 71.0527 262.979 71.0527 262.979C71.0527 262.979 70.0957 263.938 67.4641 264.178C67.4641 264.178 67.4641 264.178 67.2249 264.178C64.5933 264.658 63.6364 263.219 63.6364 263.219C63.6364 262.26 57.6555 220.308 57.1771 211.678C56.6986 204.966 56.2201 195.137 55.7416 189.144C55.5024 187.466 55.5024 186.267 55.2632 185.308C56.6986 185.548 57.8948 185.788 59.3302 186.027C64.3541 187.226 71.5311 188.904 73.9235 188.185C76.0766 193.459 79.9043 202.089 79.4259 209.281Z" fill="url(#paint0_linear_10_44)"/>
    <path d="M71.5311 256.747L71.2919 257.945L71.0526 259.144L70.5742 262.979C70.5742 262.979 67.7033 264.897 63.3971 263.459L62.6794 259.384L62.4402 258.185V257.466C62.6794 257.226 68.1818 258.185 71.5311 256.747Z" fill="#FFEADE"/>
    <path d="M71.5311 257.945L71.2919 259.144C69.1388 259.384 65.5503 259.623 62.9187 259.384L62.6794 258.185C64.8326 258.185 68.6603 258.425 71.5311 257.945Z" fill="url(#paint1_linear_10_44)"/>
    <path opacity="0.2" d="M79.4258 209.281C78.9474 216.473 74.1627 223.185 74.1627 223.185C74.1627 223.185 74.1627 229.897 73.445 237.329C72.7273 244.76 71.0526 262.979 71.0526 262.979C71.0526 262.979 70.0957 263.938 67.4641 264.178C68.6603 256.027 70.3349 224.144 70.3349 224.144C70.3349 224.144 72.488 220.548 74.6411 211.199C76.7942 202.089 70.3349 189.863 70.3349 189.863C69.8564 190.342 67.2249 190.822 61.244 189.623C58.134 188.904 56.6986 188.904 55.5024 189.144C55.2632 187.466 55.2632 186.267 55.0239 185.308C56.4593 185.548 57.6555 185.788 59.0909 186.027C64.1148 187.226 71.2919 188.904 73.6842 188.185C76.0765 193.459 79.9043 202.089 79.4258 209.281Z" fill="#E2582C"/>
    <path d="M150 139.76C150 141.438 150 142.877 149.522 144.315C147.847 152.945 140.191 157.5 132.057 157.5C122.727 157.5 115.072 149.829 115.072 140.479C115.072 131.13 122.727 123.459 132.057 123.459C133.254 123.459 134.211 123.459 135.167 123.699C143.301 125.377 149.761 131.61 150 139.76Z" fill="#19292D"/>
    <path d="M147.608 140.719C147.847 150.788 140.431 156.301 132.297 156.301C124.163 156.301 117.703 149.589 117.703 141.678C117.703 133.527 124.402 127.055 132.297 127.055C140.431 126.575 147.368 132.569 147.608 140.719Z" fill="#111E21"/>
    <path opacity="0.4" d="M149.522 144.555C147.847 153.185 140.191 157.74 132.057 157.74C122.727 157.74 115.072 150.069 115.072 140.719C115.072 131.37 122.727 123.699 132.057 123.699C133.254 123.699 134.211 123.699 135.167 123.938C134.928 126.575 133.254 129.692 133.254 129.692C141.627 130.171 147.368 138.801 149.522 144.555Z" fill="#111E21"/>
    <path d="M135.646 109.795C134.928 116.986 133.254 123.219 132.297 127.055C131.579 129.692 131.1 131.13 131.1 131.13C129.665 130.171 125.837 129.212 125.12 128.973C125.12 128.973 124.88 128.014 124.402 126.336C123.684 123.219 122.249 117.705 121.531 112.431C120.335 104.281 123.206 94.6918 123.206 94.6918C118.899 93.0137 109.569 84.6233 109.569 84.6233C109.569 84.6233 107.655 92.2945 105.263 99.726C103.11 106.199 100.478 114.829 100 116.986V117.226C100 117.466 100 117.466 100 117.466C100 117.466 99.7607 117.466 99.5215 117.705C98.3253 117.945 95.933 118.425 92.5837 118.904C88.2775 119.384 83.0143 119.863 78.2296 119.623C72.0095 119.144 66.7464 117.705 63.6363 116.507C61.7225 115.788 60.7655 115.308 60.7655 115.308C60.7655 115.308 60.7655 115.068 60.7655 114.589C61.0048 113.151 61.7225 110.034 62.2009 108.116C62.4402 107.158 62.6794 106.438 62.6794 106.438C62.4402 105.719 62.2009 104.76 61.9617 104.041C60.2871 96.6096 58.6124 83.9041 58.6124 83.9041C57.6555 82.7055 55.9808 78.6301 55.9808 78.6301C55.9808 78.6301 54.3062 84.1438 48.5646 90.3767C43.0622 96.6096 29.1866 103.082 29.1866 103.082C29.1866 103.082 25.5981 101.884 21.5311 91.0959C19.378 85.1027 18.1818 79.1096 17.7033 75.0342C17.2249 71.9178 17.2249 69.7603 17.2249 69.7603L19.8564 70.4794L26.555 72.3973C26.7942 73.1164 27.2727 73.8356 27.7512 74.7945C29.4258 77.6712 31.8182 80.7877 31.8182 80.7877C32.2966 79.589 33.0143 78.6301 33.732 77.4315C37.0813 72.8767 42.8229 68.5616 42.8229 68.5616C42.8229 68.5616 43.7799 58.4931 48.5646 54.1781C52.6315 50.3425 59.8086 50.3425 61.7225 50.3425C62.2009 50.3425 62.2009 50.3425 62.2009 50.3425C63.3971 49.863 65.311 48.6644 66.7464 46.7466L66.9856 46.5068C69.6172 45.7877 72.0095 43.8699 74.4019 41.2329C78.7081 36.4384 78.7081 33.0822 78.9473 30.6849C78.4689 34.7603 79.1866 40.0342 83.2535 42.911C83.732 43.3904 84.4497 43.6301 85.1674 44.1096C89.9521 46.0274 96.8899 47.4658 99.5215 47.9452C100.239 47.9452 100.478 48.1849 100.478 48.1849C100.478 48.1849 103.588 47.226 107.655 48.4247C109.33 48.9041 111.244 49.6233 112.919 51.0616C119.378 55.8562 118.899 64.726 118.899 64.726C127.033 75.7534 134.689 92.5342 134.689 92.5342C134.689 92.5342 136.842 97.5685 135.646 109.795Z" fill="url(#paint2_linear_10_44)"/>
    <path d="M74.4019 41.2329C78.7081 36.4384 78.7081 33.0822 78.9473 30.6849L67.9425 44.589C67.7033 45.3082 67.4641 45.7877 66.9856 46.5069C69.6172 45.7877 72.0095 43.8699 74.4019 41.2329Z" fill="url(#paint3_linear_10_44)"/>
    <path d="M83.7321 28.2877C83.4929 29.0069 83.0144 29.4863 82.5359 29.726C80.8613 31.1644 78.9474 30.6849 78.9474 30.6849C78.7082 32.8425 78.7082 36.4384 74.402 41.2329C72.0096 43.8699 69.6173 45.7877 66.9857 46.5069C65.5503 46.9863 63.8756 46.9863 62.201 46.7466C61.7225 46.5069 61.0048 46.5069 60.5264 46.2671C55.2632 44.1096 51.4355 39.3151 49.2823 33.0822C47.6077 28.5274 46.4115 24.2123 47.1292 20.3767C47.3685 18.9384 47.6077 17.5 48.3254 16.3014C49.2823 14.6233 51.1962 12.7055 54.5455 11.5069C59.8087 9.82877 66.0288 15.3425 67.7034 16.5411C69.378 17.7397 70.8134 17.0206 72.7273 17.7397C74.6412 18.4589 77.512 26.8493 77.512 26.8493C77.2728 24.2123 79.4259 19.6575 80.1436 18.2192C80.6221 17.9795 81.1005 17.9795 81.579 17.9795C82.7752 17.9795 83.7321 19.1781 84.2106 20.6164C84.689 22.774 84.689 26.3699 83.7321 28.2877Z" fill="url(#paint4_radial_10_44)"/>
    <path d="M80.1436 17.9792C79.4259 19.4175 77.2728 23.9723 77.5121 26.6093C77.5121 26.6093 74.6413 18.2189 72.7274 17.4997C70.8135 16.7805 69.3781 17.26 67.7034 16.3011C66.0288 15.1024 59.8087 9.58875 54.5456 11.2668C51.1963 12.4655 49.2824 14.1435 48.3255 16.0614C47.3685 18.2189 46.8901 20.1367 46.8901 20.1367C45.6939 20.6161 44.0192 20.1367 43.5408 17.26C43.5408 16.5408 43.5408 15.5819 43.5408 14.623C44.2585 9.58875 48.3255 3.35587 55.2633 1.19834C61.2441 -0.71947 72.7274 -2.15783 77.9905 9.82847C79.1867 11.986 79.9044 14.3833 80.3829 17.4997C80.3829 17.4997 80.1436 17.4997 80.1436 17.9792Z" fill="url(#paint5_linear_10_44)"/>
    <path d="M60.5264 23.0137C61.0048 23.2534 62.4402 21.5753 63.3972 20.3767C64.5934 18.4589 67.4642 19.8973 67.9426 20.3767C67.9426 20.3767 65.7895 16.3014 63.8757 17.0206C61.9618 17.7397 59.8087 22.5342 60.5264 23.0137Z" fill="#9C4400"/>
    <path d="M55.0238 24.6918C54.7845 26.1301 53.5884 28.0479 51.6745 26.8493C49.7606 25.6507 48.5644 25.6507 47.8467 26.6096C47.8467 26.6096 47.6075 24.4521 49.5214 23.9726C51.196 23.4932 52.6314 25.6507 53.3491 25.411C54.0668 25.1712 55.0238 24.6918 55.0238 24.6918Z" fill="#9C4400"/>
    <path d="M110.048 232.774C109.33 239.007 107.656 250.753 106.699 257.945C106.22 261.541 105.981 264.178 105.981 264.178C105.981 264.178 105.263 267.295 104.067 268.014C104.067 268.014 103.828 268.014 103.828 268.253C102.632 268.493 101.435 266.336 101.435 266.336C101.435 266.336 101.196 265.377 100.239 260.822C100.239 260.103 100 259.144 99.5215 257.705C97.8469 249.315 93.5407 228.699 93.5407 228.699C90.4306 225.103 86.3637 214.315 87.3206 208.082C88.2775 201.849 90.1914 192.021 90.4306 188.904C91.1483 188.904 91.6268 188.904 92.1053 189.144C94.2584 189.623 100 188.664 104.067 187.945C104.306 188.664 104.545 189.384 104.785 190.582C105.742 193.938 107.177 198.973 108.373 204.726C110.766 214.555 111.244 223.185 110.048 232.774Z" fill="url(#paint6_linear_10_44)"/>
    <path d="M55.2632 185.069V185.308C56.6986 185.548 57.8948 185.788 59.3302 186.027C64.3541 187.226 71.5311 188.664 73.9235 188.185C73.9235 188.185 70.0957 187.226 64.8326 186.267C59.5694 185.308 55.2632 185.069 55.2632 185.069Z" fill="url(#paint7_linear_10_44)"/>
    <path d="M104.306 188.185C104.067 187.466 104.067 187.226 104.067 187.226C104.067 187.226 101.196 186.747 96.6508 187.466C91.8661 188.185 90.6699 189.144 90.6699 189.144V189.384C91.3876 189.384 91.8661 189.384 92.3446 189.623C94.2584 189.623 100 188.904 104.306 188.185Z" fill="url(#paint8_linear_10_44)"/>
    <path opacity="0.3" d="M75.8374 52.7397C76.3159 51.0616 82.2967 48.4247 85.4068 47.9452L88.5168 48.1849C88.5168 48.1849 85.8852 48.6644 81.579 50.1027C77.512 51.5411 75.8374 52.7397 75.8374 52.7397Z" fill="#E2582C"/>
    <path opacity="0.3" d="M70.5742 53.4589C69.378 51.7808 63.6364 49.6233 63.6364 49.6233L62.4402 50.3425L70.5742 53.4589Z" fill="#E2582C"/>
    <path opacity="0.2" d="M123.206 111.952C123.923 119.623 124.641 126.096 125.12 129.212C125.12 129.212 122.727 120.582 121.531 112.432C120.335 104.281 123.206 94.6918 123.206 94.6918C118.9 93.0137 109.569 84.6233 109.569 84.6233C109.569 84.6233 107.656 92.2945 105.263 99.726C103.11 106.199 100.478 114.829 100 116.986L99.2823 117.705C98.0861 117.945 95.6938 118.425 92.3445 118.904C94.0191 116.986 99.5215 110.753 101.675 101.164C104.545 89.4178 105.981 81.2671 105.981 81.2671C105.981 81.2671 104.067 78.3904 103.828 76.7123C103.828 76.7123 100.718 85.1028 87.5598 84.863C87.5598 84.863 94.7369 83.6644 98.5646 79.5891C102.392 75.5137 102.392 73.8356 102.392 73.8356L102.632 72.3973C102.632 72.3973 97.1292 71.1986 94.7368 64.4863C92.3445 57.774 95.4546 52.5 95.4546 52.5C94.4976 57.0548 94.2584 64.0069 99.7608 67.8425C105.263 71.6781 108.373 72.1575 108.373 72.1575C108.373 72.1575 106.938 77.1918 111.722 82.9452C116.746 88.6986 121.77 93.0137 123.923 93.4932C125.12 93.7329 125.359 93.7329 125.598 93.7329C125.12 94.6918 122.249 102.123 123.206 111.952Z" fill="#E2582C"/>
    <path opacity="0.2" d="M59.3301 83.6644C59.3301 83.6644 61.9617 94.6918 62.2009 98.5274C62.4401 100.205 61.9617 102.363 61.4832 104.281C59.8085 96.8493 58.1339 84.1438 58.1339 84.1438C57.177 82.9452 55.5023 78.8699 55.5023 78.8699C55.5023 78.8699 53.8277 84.3836 48.0861 90.6164C42.5837 96.8493 28.7081 103.322 28.7081 103.322C28.7081 103.322 25.1195 102.123 21.0526 91.3356C16.9856 80.5479 16.7463 70 16.7463 70L19.3779 70.7192C19.6172 75.5137 20.8133 85.5822 22.7272 89.6575C25.598 95.411 28.4688 97.3288 28.4688 97.3288C28.4688 97.3288 36.1243 95.1712 41.6267 89.4178C46.8899 83.6644 51.1961 75.274 51.4353 73.8356C51.4353 73.8356 48.8038 70.2397 48.3253 67.8425C47.8468 65.4452 47.8468 64.2466 47.8468 64.2466C48.5645 66.8836 53.8277 74.5548 57.177 78.3904C60.5262 82.226 63.1578 84.3836 63.1578 84.3836C63.1578 84.3836 61.0047 84.863 59.3301 83.6644Z" fill="#E2582C"/>
    <path opacity="0.2" d="M25.3588 70.7192C27.7511 74.7945 31.8181 81.9863 35.4066 85.1027C35.4066 85.1027 31.3396 84.1438 29.1865 80.5479C27.0334 76.7123 24.1626 70.7192 24.1626 70.7192H25.3588Z" fill="#E2582C"/>
    <path opacity="0.2" d="M61.9616 50.3425C53.3492 51.7808 51.4353 53.9384 47.6076 58.2534C43.5406 62.5685 43.5406 67.6027 43.5406 67.6027C45.2152 67.1233 47.1291 68.0822 47.1291 68.0822C47.1291 68.0822 45.9329 68.5616 42.1052 70.4794C38.2774 72.3973 37.0813 73.5959 34.2104 76.952C37.5597 72.3972 43.3014 68.0822 43.3014 68.0822C43.3014 68.0822 44.2583 58.0137 49.043 53.6986C52.6315 50.3425 59.8085 50.3425 61.9616 50.3425C62.2009 51.0616 61.9616 50.3425 61.9616 50.3425Z" fill="#E2582C"/>
    <path opacity="0.2" d="M132.536 94.9315C132.775 97.8082 132.297 110.514 130.144 116.267C130.144 116.267 133.493 110.993 133.732 104.521C134.211 98.0479 132.536 94.9315 132.536 94.9315Z" fill="#E2582C"/>
    <g opacity="0.5">
        <path opacity="0.3" d="M70.3348 107.637C70.5741 105.479 70.8133 101.404 69.6171 97.089C68.421 92.774 69.3779 87.2603 75.1195 86.5411C80.8612 85.8219 90.909 84.6233 91.866 92.2945C92.8229 99.726 91.6267 108.596 89.2344 112.192C89.2344 112.192 87.5597 114.589 85.8851 114.829C85.8851 114.829 88.9951 110.753 89.9521 105.959C90.909 101.164 91.1483 92.2945 89.7128 90.3767C88.2774 88.4589 81.1004 86.5411 75.8372 88.2192C70.5741 89.8973 70.5741 93.9726 71.2918 97.5685C72.0095 101.404 73.6841 109.315 69.8564 112.671C69.6171 112.911 70.0956 109.555 70.3348 107.637Z" fill="#E2582C"/>
        <path opacity="0.3" d="M89.7128 102.603C86.1243 103.562 82.775 103.801 80.1434 103.801C80.1434 103.562 80.1434 103.082 80.3827 102.842C80.6219 101.164 80.6219 99.726 80.6219 98.048C87.3205 97.8082 89.4736 95.411 89.4736 95.411C86.6028 96.1301 83.4927 96.3699 80.3827 96.3699C79.9042 92.2945 78.9473 89.1781 78.9473 89.1781C79.1865 91.0959 79.4257 93.4932 79.4257 96.1301C76.3157 96.1301 73.6841 95.6507 71.531 95.1712C71.531 95.1712 72.0095 97.8082 79.4257 97.8082C79.4257 99.4863 79.1865 101.404 78.708 103.322C76.0765 103.082 74.1626 102.842 72.9664 102.603C72.9664 102.603 72.2487 104.281 78.2296 104.76C77.7511 107.158 77.2726 109.315 77.0334 110.753C74.6411 110.514 72.9664 109.795 72.2487 109.555C72.2487 109.555 72.0095 111.712 76.7942 112.192C76.3157 114.11 76.0765 115.068 76.0765 115.068C76.0765 115.068 76.5549 114.11 77.2726 112.432C77.2726 112.432 77.2726 112.432 77.5119 112.432C83.2535 112.671 87.5597 110.274 87.5597 110.274C83.732 111.233 80.3827 111.233 77.9903 111.233C78.708 109.555 79.1865 107.397 79.665 105.24C86.6028 105.479 89.7128 102.603 89.7128 102.603Z" fill="#E2582C"/>
    </g>
    <path opacity="0.7" d="M75.1196 116.267C75.3589 117.226 76.3158 117.226 76.555 116.507C76.7943 116.027 74.8804 115.308 75.1196 116.267Z" fill="#E2582C"/>
    <path opacity="0.3" d="M83.2538 43.1507C76.7944 43.3904 70.5743 45.3082 66.7466 46.9863L66.9858 46.7466C69.6174 46.0274 72.0097 44.1096 74.4021 41.4726C78.7083 36.6781 78.7083 33.3219 78.9475 30.9247C78.7083 35 79.1868 40.0342 83.2538 43.1507Z" fill="#E2582C"/>
    <path opacity="0.2" d="M82.5358 29.9658C80.8612 31.4041 78.9473 30.9247 78.9473 30.9247C78.7081 33.0822 78.7081 36.6781 74.4018 41.4726C72.0095 44.1096 69.6172 46.0274 66.9856 46.7466C65.5502 47.226 63.8755 47.226 62.2009 46.9863C71.531 46.5069 76.0765 37.637 76.555 33.0822C77.0334 27.8082 73.6841 20.3767 72.2487 18.4589C70.8133 16.7808 69.3779 18.6986 65.3109 16.7808C61.4832 14.863 60.0478 13.4247 55.0239 13.6644C50.2392 13.9041 48.0861 17.2603 46.8899 20.6164C47.1291 19.1781 47.3684 17.7397 48.0861 16.5411C49.043 14.863 50.9569 12.9452 54.3062 11.7466C59.5693 10.0685 65.7894 15.5822 67.4641 16.7808C69.1387 17.9795 70.5741 17.2603 72.488 17.9795C74.4018 18.6986 77.2727 27.089 77.2727 27.089C77.0334 24.4521 79.1865 19.8973 79.9042 18.4589C80.3827 18.2192 80.8612 18.2192 81.3396 18.2192C82.5358 18.2192 83.4927 19.4178 83.9712 20.8562C82.775 23.7329 82.5358 27.5685 82.5358 29.9658Z" fill="#E2582C"/>
    <path opacity="0.4" d="M81.579 20.8562C81.3398 21.0959 78.9474 23.4932 79.4259 27.5685C79.4259 27.5685 81.1005 27.5685 81.579 26.6096C82.0575 25.6507 80.1436 24.9315 80.1436 24.9315L81.579 20.8562Z" fill="#E2582C"/>
    <path opacity="0.2" d="M107.895 48.4247C102.871 47.9452 98.0863 49.1438 96.6509 49.863C96.6509 49.863 98.0863 48.9041 99.7609 47.9452C100.479 47.9452 100.718 48.1849 100.718 48.1849C100.718 48.1849 103.828 47.226 107.895 48.4247Z" fill="#E2582C"/>
    <path d="M29.6651 50.1027C29.6651 58.2534 22.9665 64.9658 14.8325 64.9658C8.3732 64.9658 2.63158 60.6507 0.717703 54.6575C0.239234 53.2192 0 51.5411 0 50.1027C0 49.6233 0 48.9041 0 48.4247C0.717703 40.9932 7.17703 35.2397 14.8325 35.2397C15.311 35.2397 16.0287 35.2397 16.5072 35.2397C18.8995 35.4794 21.0526 36.1986 22.7273 37.3973C27.0335 40.0342 29.6651 44.8288 29.6651 50.1027Z" fill="#19292D"/>
    <path d="M27.9905 50.3425C27.9905 57.2945 22.4881 62.8082 15.5503 62.8082C8.6125 62.8082 3.11011 57.2945 3.11011 50.3425C3.11011 43.3904 8.6125 37.8767 15.5503 37.8767C22.2489 37.8767 27.9905 43.3904 27.9905 50.3425Z" fill="#111E21"/>
    <path d="M108.612 187.226C108.373 187.226 107.416 187.466 106.22 187.706C105.502 187.945 104.785 187.945 104.067 188.185C99.9999 188.904 94.019 189.863 92.1051 189.384C91.6267 189.384 90.909 189.144 90.4305 189.144C88.9951 189.144 87.5597 189.144 86.6027 189.144C85.6458 189.144 85.1673 189.384 85.1673 189.384C84.2104 186.747 79.6649 162.774 79.6649 162.774C79.6649 162.774 78.4688 168.288 77.0334 174.521C76.0764 179.075 74.8802 184.349 74.4018 186.986C74.1625 187.945 74.1625 188.425 74.1625 188.425C73.2056 188.664 71.531 188.664 69.3779 188.425C66.2678 187.945 62.4401 187.226 59.5692 186.507C58.1338 186.267 56.9377 186.027 55.5023 185.788C51.9137 185.308 48.5645 185.068 48.5645 185.068C48.5645 185.068 48.5645 184.349 48.8037 182.911C49.2822 179.075 50.2391 170.445 51.4353 160.616C51.9137 157.26 52.3922 153.904 52.6314 150.548C52.6314 150.068 52.8707 149.589 52.8707 149.11C54.3061 139.041 56.22 130.411 57.8946 124.178C58.1338 122.979 58.3731 122.021 58.8515 121.062C59.5692 118.425 60.2869 116.507 60.5262 115.308C60.5262 115.308 60.5262 115.308 60.7654 115.308C61.0046 115.548 62.2008 115.788 63.6362 116.267C67.2247 117.466 73.6841 119.384 79.1865 119.384C83.4927 119.623 89.4736 119.144 93.7798 118.664C97.3683 118.185 99.9999 117.945 100.239 117.945C100.239 117.945 100.957 120.103 101.675 123.219C103.11 129.212 105.741 139.521 107.177 148.63C107.655 151.507 107.895 154.144 108.134 156.781C108.134 157.26 108.134 157.5 108.134 157.979C108.612 171.164 108.612 187.226 108.612 187.226Z" fill="url(#paint9_linear_10_44)"/>
    <path opacity="0.4" d="M80.1436 17.9795C79.4259 19.4178 77.2728 23.9726 77.5121 26.6096C77.5121 26.6096 74.6413 18.2192 72.7274 17.5C70.8135 16.7808 69.3781 17.2603 67.7034 16.3014C66.0288 15.1027 59.8087 9.58904 54.5456 11.2671C51.1963 12.4658 49.2824 14.1438 48.3255 16.0616C47.3685 18.2192 46.8901 20.137 46.8901 20.137C45.6939 20.6164 44.0192 20.137 43.5408 17.2603C44.9762 18.2192 46.1724 18.2192 47.1293 15.8219C48.3255 13.1849 51.914 7.91096 57.6556 8.86986C63.158 9.82877 66.5073 14.3836 71.0527 14.863C73.6843 15.1027 76.3159 12.226 78.2298 9.58904C79.1867 11.9863 79.9044 14.3836 80.3829 17.5C80.3829 17.5 80.1436 17.5 80.1436 17.9795Z" fill="url(#paint10_linear_10_44)"/>
    <path opacity="0.4" d="M101.196 122.5C96.1724 123.459 86.8422 125.137 79.1867 124.897C69.1389 124.658 61.9618 121.781 58.6125 120.342C59.3303 117.705 60.048 115.788 60.2872 114.589C60.2872 114.589 70.8135 118.425 78.7083 118.904C86.8422 119.144 100 117.226 100 117.226C100 117.226 100.479 119.623 101.196 122.5Z" fill="url(#paint11_linear_10_44)"/>
    <path opacity="0.5" d="M29.6651 50.1027C29.6651 58.2534 22.9666 64.9658 14.8326 64.9658C8.37328 64.9658 2.63165 60.6507 0.717773 54.6575C2.15318 51.3014 5.7417 46.5069 13.3972 44.589L22.0096 43.3904C22.0096 43.3904 23.445 40.274 22.9666 37.637C27.0336 40.0342 29.6651 44.8288 29.6651 50.1027Z" fill="#111E21"/>
    <path opacity="0.4" d="M56.6985 150.788C56.6985 150.788 55.5023 157.26 53.3492 159.897C53.3492 159.897 52.3922 160.137 51.4353 160.137C51.9138 156.781 52.3922 153.425 52.6315 150.069C52.6315 149.589 52.8707 149.11 52.8707 148.63C54.3061 149.589 56.6985 150.788 56.6985 150.788Z" fill="url(#paint12_linear_10_44)"/>
    <path opacity="0.4" d="M107.655 157.26H103.588L101.196 149.589C102.631 149.829 105.024 148.63 106.459 147.911C106.938 150.788 107.177 153.425 107.416 156.062C107.655 156.301 107.655 156.781 107.655 157.26Z" fill="url(#paint13_linear_10_44)"/>
    <path d="M70.335 117.705L72.4881 123.219C72.4881 123.219 79.1866 124.658 84.689 123.699C84.689 123.699 86.6029 120.582 87.3206 118.664C87.3206 118.664 82.5359 118.904 78.4689 118.904C74.1627 118.904 70.335 117.705 70.335 117.705Z" fill="url(#paint14_linear_10_44)"/>
    <path d="M74.1626 124.418L75.598 124.658C75.598 124.658 76.7942 129.692 76.7942 132.568C76.7942 135.445 76.7942 140.719 77.9904 142.397L76.7942 142.637C76.7942 142.637 75.598 139.041 75.8372 134.966C76.0765 130.651 75.598 128.014 74.8803 126.575C74.4018 125.137 74.1626 124.418 74.1626 124.418Z" fill="#F6D87A"/>
    <path d="M79.1865 124.897H80.3826C80.3826 124.897 80.3827 128.493 80.1434 131.849C79.9042 135.205 80.1434 140.24 81.1004 143.116L79.9042 143.356C79.9042 143.356 78.9472 140.719 78.708 137.123C78.4688 133.527 79.1865 131.37 79.1865 128.973C79.4257 126.575 79.1865 124.897 79.1865 124.897Z" fill="#F6D87A"/>
    <path d="M106.699 257.945C106.699 258.425 106.699 258.904 106.459 259.383C106.459 259.863 106.459 260.342 106.22 260.582C105.981 262.74 105.742 264.178 105.742 264.178C105.742 264.178 105.024 267.294 103.828 268.014C103.828 268.014 103.588 268.014 103.588 268.253C102.392 268.493 101.196 266.336 101.196 266.336C101.196 266.336 100.957 265.377 100 260.822C100 260.822 100 260.582 100 260.342C100 260.103 99.7607 259.623 99.7607 259.144C99.7607 258.664 99.5215 258.425 99.5215 257.945C101.435 257.945 104.306 258.425 106.699 257.945Z" fill="#FFEADE"/>
    <path d="M106.699 259.384C106.699 259.863 106.699 260.342 106.459 260.582C105.263 260.822 103.11 261.062 100.239 260.342C100.239 260.103 100 259.623 100 259.144C101.196 259.384 103.828 259.863 106.699 259.384Z" fill="url(#paint15_linear_10_44)"/>
    <path opacity="0.2" d="M27.7511 74.7945C24.4019 75.274 20.0956 75.274 17.4641 75.0342C16.9856 71.9178 16.9856 69.7603 16.9856 69.7603L19.6172 70.4795L26.3157 72.3973C26.7942 73.1164 27.2727 74.0753 27.7511 74.7945Z" fill="#E2582C"/>
    <path opacity="0.2" d="M132.297 127.055C131.579 129.692 131.1 131.13 131.1 131.13C129.665 130.171 125.837 129.212 125.12 128.973C125.12 128.973 124.88 128.014 124.402 126.336C126.555 126.336 129.426 126.336 132.297 127.055Z" fill="#E2582C"/>
    <path opacity="0.5" d="M106.459 187.705C106.938 178.356 105.502 161.336 105.502 161.336C95.4544 153.904 101.675 138.082 101.675 138.082C99.9999 131.61 96.1721 124.658 93.5405 118.185C97.3683 117.705 99.9999 117.466 99.9999 117.466C99.9999 117.466 100.718 119.623 101.435 122.74C102.871 128.733 105.502 139.041 106.938 148.151C107.416 151.027 107.655 153.664 107.895 156.301C107.895 156.781 107.895 157.021 107.895 157.5C108.852 171.404 108.852 187.466 108.852 187.466C108.373 187.226 107.416 187.466 106.459 187.705Z" fill="url(#paint16_linear_10_44)"/>
    <path opacity="0.5" d="M86.6028 189.144C85.6459 189.144 85.1674 189.384 85.1674 189.384C84.2104 186.747 79.665 162.774 79.665 162.774C79.665 162.774 78.4688 168.288 77.0334 174.521C75.598 180.753 74.1626 188.425 74.1626 188.425C73.2057 188.664 71.531 188.664 69.3779 188.425C70.8133 182.192 73.9234 170.925 76.555 165.651C79.4258 160.137 79.665 155.822 79.665 155.822C79.665 155.822 83.4927 181.233 86.6028 189.144Z" fill="url(#paint17_linear_10_44)"/>
    <path opacity="0.5" d="M74.1628 186.747C73.9235 187.706 73.9235 188.185 73.9235 188.185C72.9666 188.425 71.292 188.425 69.1389 188.185C66.0288 187.706 62.201 186.986 59.3302 186.267C57.8948 186.027 56.6987 185.788 55.2632 185.548C51.6747 185.069 48.3254 184.829 48.3254 184.829C48.3254 184.829 48.3254 184.11 48.5647 182.671C54.5455 183.39 55.5025 185.548 60.5264 186.507C64.5934 186.986 71.292 186.747 74.1628 186.747Z" fill="url(#paint18_linear_10_44)"/>
    <path opacity="0.5" d="M63.6364 120.342C63.6364 120.342 60.5264 122.74 57.8948 123.699C58.134 122.5 58.3732 121.541 58.8517 120.582C59.5694 117.945 60.2871 116.027 60.5263 114.829C60.5263 114.829 60.5263 114.829 60.7656 114.829C61.0048 113.39 61.7225 110.274 62.201 108.356C62.9187 110.993 63.1579 113.63 63.3972 115.788C63.3972 116.027 63.3972 116.507 63.3972 116.747C63.3972 118.904 63.6364 120.342 63.6364 120.342Z" fill="url(#paint19_linear_10_44)"/>
    <path opacity="0.2" d="M97.1292 230.856C97.1292 230.856 102.392 257.466 103.828 268.014C102.632 268.253 101.435 266.096 101.435 266.096C101.435 266.096 101.196 265.137 100.239 260.582C99.2823 256.027 93.5407 228.699 93.5407 228.699C90.4306 225.103 86.3637 214.315 87.3206 208.082C88.2775 201.849 90.1914 192.021 90.4306 188.904C91.1483 188.904 91.6268 188.904 92.1053 189.144C94.2584 189.623 100 188.664 104.067 187.945C104.306 188.664 104.545 189.384 104.785 190.582C102.632 191.781 98.8039 193.219 93.0622 192.021C93.0622 192.021 89.7129 204.247 90.6699 213.116C92.1053 222.226 97.1292 230.856 97.1292 230.856Z" fill="#E2582C"/>
    <path opacity="0.2" d="M66.7464 190.582C65.311 190.582 63.1579 193.938 62.6794 197.295C62.6794 197.295 65.311 196.336 66.9857 194.178C68.4211 192.021 66.7464 190.582 66.7464 190.582Z" fill="#E2582C"/>
    <path opacity="0.2" d="M94.7367 191.541C95.6936 193.699 96.4114 196.336 97.1291 196.815C97.1291 196.815 95.9329 197.534 94.2582 195.377C92.3443 192.979 94.7367 191.541 94.7367 191.541Z" fill="#E2582C"/>
    <path opacity="0.2" d="M102.392 191.062C102.392 191.062 101.914 195.137 101.196 196.096C101.196 196.096 102.631 196.575 103.349 193.938C104.067 191.541 102.392 191.062 102.392 191.062Z" fill="#E2582C"/>
    <path d="M110.287 275.925C110.048 277.842 107.416 280 104.545 280C103.589 280 102.871 279.76 102.153 279.281C100.718 278.322 100.478 276.404 100.478 276.404C100.478 274.726 100.239 265.856 101.196 264.897C101.196 264.897 101.914 266.815 103.11 267.534C103.349 267.774 103.589 267.774 103.828 267.774C105.263 267.774 106.22 263.938 106.22 263.938C108.134 268.014 110.287 274.007 110.287 275.925Z" fill="#273F47"/>
    <path d="M103.349 270.411C102.153 270.411 101.436 270.171 101.436 270.171C101.196 270.171 101.196 269.931 101.196 269.931C101.196 269.692 101.436 269.692 101.436 269.692C101.436 269.692 103.828 270.171 106.22 269.212C106.459 269.212 106.459 269.212 106.699 269.452C106.699 269.692 106.699 269.692 106.459 269.931C105.503 270.171 104.306 270.411 103.349 270.411Z" fill="#F46A00"/>
    <path d="M103.828 274.007C102.871 274.007 102.153 273.767 102.153 273.527C101.914 273.527 101.914 273.288 102.153 273.048C102.153 272.808 102.393 272.808 102.632 273.048C102.632 273.048 104.067 274.007 106.938 272.568C107.177 272.568 107.177 272.568 107.416 272.808C107.416 273.048 107.416 273.048 107.177 273.288C105.742 274.007 104.546 274.007 103.828 274.007Z" fill="#F46A00"/>
    <path opacity="0.4" d="M102.153 279.521C100.718 278.562 100.478 276.644 100.478 276.644C100.478 274.966 100.239 266.096 101.196 265.137C101.196 265.137 101.914 267.055 103.11 267.774C102.153 272.808 101.435 275.205 102.153 279.521Z" fill="#273F47"/>
    <path d="M73.445 273.048C73.445 273.048 71.7704 273.767 68.8995 274.486C66.5072 274.966 63.3972 275.445 59.5694 275.445C53.1101 275.205 47.6077 274.966 47.6077 274.966C52.1531 273.527 56.2201 270.651 59.0909 268.014C59.3302 267.774 59.3302 267.774 59.5694 267.534C60.2871 266.815 61.0048 266.336 61.4833 265.616C61.7225 265.377 61.7225 265.377 61.9617 265.137C62.9187 264.178 63.3972 263.459 63.3972 263.459C63.3972 263.459 65.0718 263.699 66.9857 263.699C67.2249 263.699 67.2249 263.699 67.4641 263.699C69.1388 263.699 70.8134 262.979 70.8134 262.979C72.7273 266.336 73.445 273.048 73.445 273.048Z" fill="#273F47"/>
    <path opacity="0.4" d="M73.445 273.048C73.445 273.048 71.7703 273.767 68.8995 274.486C68.6603 271.13 67.9426 266.575 67.4641 263.699C69.1388 263.699 70.8134 262.979 70.8134 262.979C72.7273 266.336 73.445 273.048 73.445 273.048Z" fill="#273F47"/>
    <path d="M65.7896 267.774C65.5504 267.774 65.3112 267.774 65.3112 267.774C64.5935 267.295 62.9188 266.096 61.4834 265.377C61.7226 265.137 61.7226 265.137 61.9619 264.897C63.3973 265.616 65.0719 266.815 65.5504 267.295C66.0289 267.534 66.0289 267.534 65.7896 267.774Z" fill="#F46A00"/>
    <path d="M63.1581 270.411C62.9188 270.411 62.9188 270.411 63.1581 270.411C62.9188 270.411 62.9188 270.411 62.6796 270.411C61.7227 269.212 60.2873 268.253 59.3303 267.774C59.5696 267.534 59.5696 267.534 59.8088 267.295C60.7657 268.014 62.2011 268.973 63.1581 269.932C63.1581 270.171 63.1581 270.411 63.1581 270.411Z" fill="#F46A00"/>
    <path d="M61.4833 83.9041L61.244 84.1438C59.8086 84.863 57.4163 81.0274 58.134 80.0685C58.134 80.0685 58.134 80.0685 58.3732 80.0685C59.3302 79.3493 62.6795 82.4658 61.4833 83.9041Z" fill="#B2573E"/>
    <path opacity="0.5" d="M61.244 84.1439C59.8086 84.8631 57.4163 81.0274 58.134 80.0685C59.3302 81.7466 60.5263 83.185 61.244 84.1439Z" fill="#B2573E"/>
    <path d="M96.6508 80.5479C96.6508 81.5069 93.0623 83.9041 91.8661 83.4247C91.8661 83.4247 91.6269 83.4247 91.6269 83.1849C90.6699 81.9863 95.4546 79.3493 96.6508 80.3082C96.6508 80.3082 96.6508 80.3082 96.6508 80.5479Z" fill="#B2573E"/>
    <path opacity="0.5" d="M96.6509 80.548C96.6509 81.5069 93.0624 83.9041 91.8662 83.4247C93.3016 82.7055 95.694 81.2671 96.6509 80.548Z" fill="#B2573E"/>
    <path opacity="0.2" d="M75.5979 77.6712C76.0764 78.6301 76.5549 79.589 77.2726 80.5479C75.5979 82.7055 69.3778 85.5822 66.0286 84.863C66.0286 84.863 72.4879 86.5411 78.4688 82.226C79.4257 83.4247 80.6219 84.1438 81.1003 84.6233C77.9903 81.9863 74.641 64.9658 74.4018 61.6096C74.1625 61.3699 73.9233 73.3562 75.5979 77.6712Z" fill="#E2582C"/>
    <path d="M40.67 59.2123C39.4738 67.6027 31.8183 74.7945 20.8135 73.1164C11.0049 71.6781 5.98096 65.9246 5.98096 58.4931C5.98096 57.774 5.98096 57.0548 5.98096 56.0959C6.22019 54.8973 6.45943 53.6986 6.69866 52.5C8.61254 46.0274 13.6365 41.4726 19.8566 40.7534C27.0336 39.7945 32.2967 41.952 35.646 45.3082C38.0384 47.7055 39.4738 50.8219 40.1915 53.9383C40.9092 55.8562 40.9092 57.5342 40.67 59.2123Z" fill="#21373D"/>
    <path d="M20.335 44.1096C14.3541 44.8288 9.56941 49.863 8.61247 56.8151C7.89477 63.5274 11.7225 69.5205 20.8134 70.7192C29.9043 71.9178 36.3637 65.9247 37.0814 59.2123C38.0383 52.2603 32.7752 42.4315 20.335 44.1096Z" fill="#273F47"/>
    <path d="M33.4929 57.2945C33.4929 63.0479 28.9474 67.6027 23.2058 67.6027C17.4642 67.6027 12.9187 63.0479 12.9187 57.2945C12.9187 51.5411 17.4642 46.9863 23.2058 46.9863C28.9474 46.9863 33.4929 51.5411 33.4929 57.2945Z" fill="#21373D"/>
    <path d="M26.0765 57.2945C26.0765 58.9726 24.6411 60.4109 22.9665 60.4109C21.2919 60.4109 19.8564 58.9726 19.8564 57.2945C19.8564 55.6164 21.2919 54.1781 22.9665 54.1781C24.6411 54.1781 26.0765 55.6164 26.0765 57.2945Z" fill="#19292D"/>
    <path d="M143.062 151.747C142.105 154.623 140.67 157.021 138.756 158.699C136.364 160.856 133.014 162.055 129.426 162.295C120.813 163.014 113.636 158.459 111.244 151.507C108.373 143.116 110.765 136.884 114.832 132.808C116.986 130.651 119.617 129.212 122.249 128.493C123.445 128.253 124.641 128.014 125.837 127.774C134.45 127.295 143.541 133.527 143.78 144.555C144.019 147.192 143.78 149.829 143.062 151.747Z" fill="#21373D"/>
    <path d="M114.354 150.788C116.268 156.541 122.249 160.137 129.426 159.658C136.603 159.178 141.866 154.144 141.387 145.034C141.148 135.925 133.732 130.651 126.555 131.13C119.378 131.61 110.287 138.801 114.354 150.788Z" fill="#273F47"/>
    <path d="M125.359 135.205C131.1 134.007 136.842 137.842 137.799 143.356C138.756 148.87 134.928 154.384 129.186 155.342C123.445 156.541 117.703 152.705 116.746 147.192C115.789 141.918 119.617 136.404 125.359 135.205Z" fill="#21373D"/>
    <path d="M126.794 142.637C128.469 142.397 130.143 143.356 130.622 145.034C130.861 146.712 129.665 148.39 127.99 148.63C126.316 148.87 124.641 147.911 124.163 146.233C123.923 144.555 125.119 142.877 126.794 142.637Z" fill="#19292D"/>
    <path opacity="0.4" d="M138.756 158.699C136.364 160.856 133.014 162.055 129.426 162.295C120.813 163.014 113.636 158.459 111.244 151.507C108.373 143.116 110.765 136.884 114.832 132.808C114.832 134.007 114.832 135.925 115.072 138.082C115.311 140 115.789 141.918 116.507 144.075C117.942 147.911 120.096 151.507 124.163 154.144C125.12 154.623 126.076 155.342 126.794 155.582C129.426 157.021 132.297 157.74 134.689 158.219C136.364 158.459 137.56 158.699 138.756 158.699Z" fill="#273F47"/>
    <path opacity="0.4" d="M40.6699 59.2123C39.4738 67.6027 31.8183 74.7945 20.8135 73.1164C11.0049 71.6781 5.98096 65.9246 5.98096 58.4931C6.93789 59.452 7.89483 60.4109 8.85177 61.3699C12.2011 64.4863 14.8326 66.1644 18.4211 66.4041C20.335 66.6438 22.4881 66.1644 25.1197 65.4452C27.7513 64.726 30.1436 63.5274 32.2967 62.3288C34.2106 61.1301 35.8853 59.6918 37.3207 58.2534C38.5168 57.0548 39.713 55.6164 40.6699 54.1781C40.9092 55.8562 40.9092 57.5342 40.6699 59.2123Z" fill="#273F47"/>
    <path d="M120.574 137.842C122.249 136.404 127.034 133.527 132.775 136.644C138.517 139.76 139.235 147.192 136.364 151.027C136.364 151.027 139.235 141.438 132.536 138.082C125.837 134.486 120.574 137.842 120.574 137.842Z" fill="#21373D"/>
    <path d="M124.641 144.315C124.641 144.315 125.12 142.637 127.512 142.637C129.665 142.637 130.861 144.315 130.622 145.993C130.622 145.993 129.665 143.836 127.751 143.596C125.598 143.356 124.641 144.315 124.641 144.315Z" fill="#21373D"/>
    <path opacity="0.4" d="M143.062 151.747C143.78 144.315 141.627 137.603 137.56 133.288C133.014 128.493 127.273 128.253 122.249 128.493C123.445 128.253 124.641 128.014 125.837 127.774C134.45 127.295 143.541 133.527 143.78 144.555C144.019 147.192 143.78 149.829 143.062 151.747Z" fill="#21373D"/>
    <path opacity="0.4" d="M36.1244 45.5479C31.1004 41.9521 25.3588 40.0342 17.4641 43.1507C10.5263 46.0274 7.89468 50.3425 6.93774 52.7397C8.85162 46.2671 13.8755 41.7123 20.0956 40.9931C27.2727 40.0342 32.5358 42.1918 36.1244 45.5479Z" fill="#21373D"/>
    <path opacity="0.6" d="M16.5072 35.2397C5.98086 36.6781 1.91388 44.1096 0 48.4247C0.717703 40.9932 7.17703 35.2397 14.8325 35.2397C15.311 35 16.0287 35.2397 16.5072 35.2397Z" fill="#21373D"/>
    <path opacity="0.6" d="M13.1579 58.4931C13.1579 58.4931 11.244 52.7397 17.2249 48.9041C23.2058 45.0685 29.1866 47.9452 31.579 50.8219C31.579 50.8219 24.8804 46.5068 18.8995 50.3425C13.3972 53.9383 13.1579 58.4931 13.1579 58.4931Z" fill="#2E4D54"/>
    <path opacity="0.8" d="M20.0957 58.4931C20.0957 58.4931 18.8996 55.6164 22.0096 54.4178C25.1197 53.2192 26.0766 56.5753 26.0766 56.5753C26.0766 56.5753 24.6412 54.8973 22.2489 55.3767C20.0957 56.0959 20.0957 58.4931 20.0957 58.4931Z" fill="#325259"/>
    <path d="M58.6125 40.274C58.8518 40.274 59.5695 40.274 63.6365 39.0753C67.7035 37.637 68.8996 36.9178 68.8996 36.9178C68.8996 36.9178 69.1389 42.1918 65.5503 43.1507C60.2872 44.3493 58.6125 40.274 58.6125 40.274Z" fill="white"/>
    <path d="M61.7224 29.2466C62.2009 27.8082 62.2009 27.8082 62.9186 26.1301C63.3971 24.4521 65.3109 23.2534 67.2248 24.9315C69.1387 26.6096 69.3779 27.8082 69.3779 27.8082C69.3779 27.8082 68.1817 29.2466 65.3109 29.4863C62.2009 29.4863 61.7224 29.2466 61.7224 29.2466Z" fill="white"/>
    <path d="M55.5025 30.4452C55.5025 30.4452 55.2633 31.8836 52.871 32.363C50.4786 33.0822 49.2824 31.8836 49.2824 31.8836C48.804 30.4452 49.2824 28.5274 51.1963 28.2877H51.4356C53.3494 28.0479 54.7848 29.2466 55.2633 30.2055C55.2633 30.4452 55.5025 30.4452 55.5025 30.4452Z" fill="white"/>
    <path d="M54.7847 28.2877C55.2631 28.7671 55.9808 29.2466 55.9808 30.9247C55.9808 32.6027 55.9808 37.1575 55.9808 37.1575C55.9808 37.1575 56.9378 37.3973 57.8947 37.637C58.8517 37.8767 60.2871 37.8767 60.7655 36.9178C61.0048 35.9589 60.5263 35.9589 60.2871 36.4384C60.0478 36.9178 59.8086 37.3973 58.6124 37.1575C57.4163 36.9178 56.6986 36.6781 56.6986 36.6781C56.6986 36.6781 56.6986 34.5206 56.4593 31.8836C56.4593 29.9658 56.2201 29.2466 55.9808 28.7671C55.7416 28.2877 54.7847 28.2877 54.7847 28.2877Z" fill="#D66D3F"/>
    <path d="M69.1387 26.6096C69.1387 28.0479 67.9425 29.0068 66.7463 29.0068C65.3109 29.0068 64.354 27.8082 64.354 26.6096C64.354 25.1712 65.5502 24.2123 66.7463 24.2123C68.1817 23.9726 69.1387 25.1712 69.1387 26.6096Z" fill="url(#paint20_linear_10_44)"/>
    <path d="M55.2632 30.2055C55.024 31.4041 54.067 32.363 52.8709 32.363C51.6747 32.363 50.4785 31.4041 50.4785 29.9658C50.4785 29.2466 50.7177 28.7671 51.1962 28.2877H51.4355C53.3493 28.048 54.7847 29.2466 55.2632 30.2055Z" fill="url(#paint21_linear_10_44)"/>
    <path d="M62.6793 25.6507C63.1578 23.7329 64.1147 23.0137 66.0286 23.2534C69.1387 23.4932 69.6171 26.8493 69.3779 27.8082C69.3779 27.8082 67.9425 24.6918 65.7894 24.6918C63.6363 24.6918 62.4401 28.0479 61.7224 29.2466C61.4832 29.4863 61.9616 28.5274 62.6793 25.6507Z" fill="url(#paint22_linear_10_44)"/>
    <path d="M55.5024 30.4452C55.5024 29.9658 54.3062 28.2877 52.3923 27.8082C50.4785 27.3288 48.8038 29.726 49.2823 31.8836C49.2823 32.363 48.8038 29.726 51.4354 29.0068C53.8278 28.5274 55.5024 30.4452 55.5024 30.4452Z" fill="url(#paint23_linear_10_44)"/>
    <path d="M51.6747 30.6849C51.6747 31.1644 51.4354 31.4041 50.957 31.4041C50.4785 31.4041 50.2393 31.1644 50.2393 30.6849C50.2393 30.2055 50.4785 29.9658 50.957 29.9658C51.4354 29.726 51.6747 30.2055 51.6747 30.6849Z" fill="white"/>
    <path d="M65.5501 27.089C65.5501 27.5685 65.3109 27.8082 64.8324 27.8082C64.354 27.8082 64.1147 27.5685 64.1147 27.089C64.1147 26.6096 64.354 26.3699 64.8324 26.3699C65.0717 26.1301 65.5501 26.6096 65.5501 27.089Z" fill="white"/>
    <path d="M52.6316 30.2055C52.6316 30.4452 52.8708 30.9247 53.3493 30.9247C53.5885 30.9247 54.067 30.6849 54.067 30.2055C54.067 29.9658 53.8278 29.4863 53.3493 29.4863C53.1101 29.4863 52.8708 29.726 52.6316 30.2055Z" fill="url(#paint24_linear_10_44)"/>
    <path d="M66.5071 26.6096C66.5071 26.8493 66.7463 27.3288 67.2248 27.3288C67.464 27.3288 67.9425 27.089 67.9425 26.6096C67.9425 26.3699 67.7033 25.8904 67.2248 25.8904C66.7463 26.1301 66.5071 26.3699 66.5071 26.6096Z" fill="url(#paint25_linear_10_44)"/>
    <path opacity="0.61" d="M61.7224 29.2466C61.7224 29.2466 62.6794 27.8082 63.6363 26.6096C64.5932 25.6507 65.3109 25.1712 66.7463 25.6507C68.1817 26.1301 69.3779 27.8082 69.3779 27.8082C69.3779 27.8082 68.6602 25.411 67.2248 24.452C65.7894 23.4931 63.8755 24.2123 63.1578 25.411C62.6794 26.6096 61.7224 29.2466 61.7224 29.2466Z" fill="#B8B8B8"/>
    <path opacity="0.61" d="M55.5024 30.4452C55.5024 30.4452 53.5885 29.0069 51.6746 29.4863C49.7608 30.2055 49.2823 31.8836 49.2823 31.8836C49.2823 31.8836 48.3253 29.9658 50.7177 28.5274C53.11 27.3288 55.5024 30.4452 55.5024 30.4452Z" fill="#B8B8B8"/>
    <defs>
        <linearGradient id="paint0_linear_10_44" x1="74.5491" y1="251.903" x2="63.35" y2="187.586" gradientUnits="userSpaceOnUse">
            <stop stop-color="#F1BF93"/>
            <stop offset="1" stop-color="#F19A79"/>
        </linearGradient>
        <linearGradient id="paint1_linear_10_44" x1="62.8878" y1="258.675" x2="71.5014" y2="258.675" gradientUnits="userSpaceOnUse">
            <stop offset="0.005" stop-color="#F29B00"/>
            <stop offset="1" stop-color="#F1B700"/>
        </linearGradient>
        <linearGradient id="paint2_linear_10_44" x1="83.321" y1="124.567" x2="68.2282" y2="37.8879" gradientUnits="userSpaceOnUse">
            <stop stop-color="#F1BF93"/>
            <stop offset="1" stop-color="#F19A79"/>
        </linearGradient>
        <linearGradient id="paint3_linear_10_44" x1="87.7837" y1="123.786" x2="72.6916" y2="37.1107" gradientUnits="userSpaceOnUse">
            <stop stop-color="#F1BF93"/>
            <stop offset="1" stop-color="#F19A79"/>
        </linearGradient>
        <radialGradient id="paint4_radial_10_44" cx="0" cy="0" r="1" gradientUnits="userSpaceOnUse" gradientTransform="translate(57.8728 25.8609) scale(23.2378 23.2856)">
            <stop stop-color="#F1BF93"/>
            <stop offset="1" stop-color="#F19A79"/>
        </radialGradient>
        <linearGradient id="paint5_linear_10_44" x1="48.7898" y1="4.87238" x2="74.661" y2="21.6593" gradientUnits="userSpaceOnUse">
            <stop offset="0.005" stop-color="#9C4400"/>
            <stop offset="0.99" stop-color="#8A3400"/>
        </linearGradient>
        <linearGradient id="paint6_linear_10_44" x1="106.345" y1="256.412" x2="95.0145" y2="191.34" gradientUnits="userSpaceOnUse">
            <stop stop-color="#F1BF93"/>
            <stop offset="1" stop-color="#F19A79"/>
        </linearGradient>
        <linearGradient id="paint7_linear_10_44" x1="75.895" y1="251.679" x2="64.694" y2="187.351" gradientUnits="userSpaceOnUse">
            <stop stop-color="#F1BF93"/>
            <stop offset="1" stop-color="#F19A79"/>
        </linearGradient>
        <linearGradient id="paint8_linear_10_44" x1="109.049" y1="255.932" x2="97.7194" y2="190.866" gradientUnits="userSpaceOnUse">
            <stop stop-color="#F1BF93"/>
            <stop offset="1" stop-color="#F19A79"/>
        </linearGradient>
        <linearGradient id="paint9_linear_10_44" x1="81.3958" y1="194.137" x2="69.9522" y2="111.638" gradientUnits="userSpaceOnUse">
            <stop offset="0.005" stop-color="#F29B00"/>
            <stop offset="1" stop-color="#F1B700"/>
        </linearGradient>
        <linearGradient id="paint10_linear_10_44" x1="50.3116" y1="7.63959" x2="74.1686" y2="23.1195" gradientUnits="userSpaceOnUse">
            <stop offset="0.005" stop-color="#9C4400"/>
            <stop offset="0.99" stop-color="#8A3400"/>
        </linearGradient>
        <linearGradient id="paint11_linear_10_44" x1="64.3592" y1="109.137" x2="92.0127" y2="127.081" gradientUnits="userSpaceOnUse">
            <stop offset="0.005" stop-color="#9C4400"/>
            <stop offset="0.99" stop-color="#8A3400"/>
        </linearGradient>
        <linearGradient id="paint12_linear_10_44" x1="50.03" y1="152.917" x2="54.7439" y2="155.976" gradientUnits="userSpaceOnUse">
            <stop offset="0.005" stop-color="#9C4400"/>
            <stop offset="0.99" stop-color="#8A3400"/>
        </linearGradient>
        <linearGradient id="paint13_linear_10_44" x1="101.123" y1="149.994" x2="107.929" y2="154.41" gradientUnits="userSpaceOnUse">
            <stop offset="0.005" stop-color="#9C4400"/>
            <stop offset="0.99" stop-color="#8A3400"/>
        </linearGradient>
        <linearGradient id="paint14_linear_10_44" x1="76.8696" y1="128.831" x2="79.1066" y2="115.501" gradientUnits="userSpaceOnUse">
            <stop offset="0.005" stop-color="#F29B00"/>
            <stop offset="1" stop-color="#F1B700"/>
        </linearGradient>
        <linearGradient id="paint15_linear_10_44" x1="99.8849" y1="259.939" x2="106.616" y2="259.939" gradientUnits="userSpaceOnUse">
            <stop offset="0.005" stop-color="#F29B00"/>
            <stop offset="1" stop-color="#F1B700"/>
        </linearGradient>
        <linearGradient id="paint16_linear_10_44" x1="107.851" y1="189.945" x2="97.5943" y2="116.001" gradientUnits="userSpaceOnUse">
            <stop offset="0.005" stop-color="#F29B00"/>
            <stop offset="1" stop-color="#F1B700"/>
        </linearGradient>
        <linearGradient id="paint17_linear_10_44" x1="78.2966" y1="191.42" x2="73.341" y2="155.693" gradientUnits="userSpaceOnUse">
            <stop offset="0.005" stop-color="#F29B00"/>
            <stop offset="1" stop-color="#F1B700"/>
        </linearGradient>
        <linearGradient id="paint18_linear_10_44" x1="61.9865" y1="190.235" x2="60.6423" y2="180.546" gradientUnits="userSpaceOnUse">
            <stop offset="0.005" stop-color="#F29B00"/>
            <stop offset="1" stop-color="#F1B700"/>
        </linearGradient>
        <linearGradient id="paint19_linear_10_44" x1="60.9972" y1="123.634" x2="58.8714" y2="108.309" gradientUnits="userSpaceOnUse">
            <stop offset="0.005" stop-color="#F29B00"/>
            <stop offset="1" stop-color="#F1B700"/>
        </linearGradient>
        <linearGradient id="paint20_linear_10_44" x1="64.21" y1="26.5741" x2="69.1746" y2="26.5741" gradientUnits="userSpaceOnUse">
            <stop stop-color="#507330"/>
            <stop offset="1" stop-color="#53741A"/>
        </linearGradient>
        <linearGradient id="paint21_linear_10_44" x1="50.5989" y1="30.2848" x2="55.2996" y2="30.2848" gradientUnits="userSpaceOnUse">
            <stop stop-color="#507330"/>
            <stop offset="1" stop-color="#53741A"/>
        </linearGradient>
        <linearGradient id="paint22_linear_10_44" x1="61.6245" y1="26.262" x2="69.421" y2="26.262" gradientUnits="userSpaceOnUse">
            <stop stop-color="#99634E"/>
            <stop offset="0.9999" stop-color="#A04A23"/>
        </linearGradient>
        <linearGradient id="paint23_linear_10_44" x1="55.6632" y1="28.2886" x2="46.7165" y2="31.5266" gradientUnits="userSpaceOnUse">
            <stop stop-color="#99634E"/>
            <stop offset="0.9999" stop-color="#A04A23"/>
        </linearGradient>
        <linearGradient id="paint24_linear_10_44" x1="53.9935" y1="30.1891" x2="52.7482" y2="30.1509" gradientUnits="userSpaceOnUse">
            <stop stop-color="#1D2626"/>
            <stop offset="0.9847" stop-color="#16181F"/>
        </linearGradient>
        <linearGradient id="paint25_linear_10_44" x1="67.6815" y1="26.767" x2="66.4362" y2="26.7289" gradientUnits="userSpaceOnUse">
            <stop stop-color="#1D2626"/>
            <stop offset="0.9847" stop-color="#16181F"/>
        </linearGradient>
    </defs>
</svg>
    