<svg width="19" height="19" viewBox="0 0 19 19" fill="none"
    xmlns="http://www.w3.org/2000/svg">
    <path d="M10.5049 5.04008C9.1253 5.56644 7.66006 5.10116 5.94838 5.75424C5.3097 5.99792 4.79639 6.3401 4.33787 6.74917C4.33049 6.57639 4.29385 6.32697 4.24512 6.19923C4.23537 6.17369 4.19033 6.13234 4.18058 6.10679C3.88211 5.40121 3.04478 5.04756 2.31971 5.29494C1.48269 5.55576 1.07189 6.47342 1.37406 7.26539C1.56901 7.77634 1.95489 8.09737 2.43558 8.20663L6.19805 18.0679C6.33451 18.4256 6.68746 18.5836 7.04512 18.4471L7.45388 18.2912C7.786 18.1645 7.96955 17.8018 7.83308 17.4441L6.91683 15.0426C7.51519 14.4632 8.31188 13.8665 9.6148 13.3694C10.9944 12.843 12.4596 13.3083 14.1713 12.6553C15.3976 12.1874 16.2282 11.3729 16.914 10.4089C17.0599 10.1776 17.1157 9.86367 17.0182 9.60819L14.6398 3.37462C14.4157 2.78703 13.6308 2.64751 13.182 3.08213C12.4693 3.8223 11.5523 4.64044 10.5049 5.04008Z" fill="#FF493A" fill-opacity="0.2"/>
</svg>
    