<svg width="17" height="17" viewBox="0 0 17 17" fill="none" xmlns="http://www.w3.org/2000/svg">
<path d="M9.50486 3.04008C8.1253 3.56644 6.66006 3.10116 4.94838 3.75424C4.3097 3.99792 3.79639 4.3401 3.33787 4.74917C3.33049 4.57639 3.29385 4.32697 3.24512 4.19923C3.23537 4.17369 3.19033 4.13234 3.18058 4.10679C2.88211 3.40121 2.04478 3.04756 1.31971 3.29494C0.482694 3.55576 0.0718928 4.47342 0.37406 5.26539C0.569007 5.77634 0.954892 6.09737 1.43558 6.20663L5.19805 16.0679C5.33451 16.4256 5.68746 16.5836 6.04512 16.4471L6.45388 16.2912C6.786 16.1645 6.96955 15.8018 6.83308 15.4441L5.91683 13.0426C6.51519 12.4632 7.31188 11.8665 8.6148 11.3694C9.99436 10.843 11.4596 11.3083 13.1713 10.6553C14.3976 10.1874 15.2282 9.37293 15.914 8.40889C16.0599 8.17762 16.1157 7.86367 16.0182 7.60819L13.6398 1.37462C13.4157 0.787034 12.6308 0.647507 12.182 1.08213C11.4693 1.8223 10.5523 2.64044 9.50486 3.04008Z" fill="#FF493A" fill-opacity="0.2"/>
</svg>
