<svg width="28" height="22" viewBox="0 0 28 22" fill="none" xmlns="http://www.w3.org/2000/svg">
<path d="M14.125 5.98438L5.5 13.1094V20.75C5.5 21.1719 5.82812 21.5 6.25 21.5H11.5C11.875 21.5 12.2031 21.1719 12.2031 20.75V16.25C12.2031 15.875 12.5781 15.5 12.9531 15.5H15.9531C16.375 15.5 16.7031 15.875 16.7031 16.25V20.75C16.7031 21.1719 17.0781 21.5 17.4531 21.5H22.75C23.125 21.5 23.5 21.1719 23.5 20.75V13.0625L14.8281 5.98438C14.7344 5.89062 14.5938 5.84375 14.5 5.84375C14.3594 5.84375 14.2188 5.89062 14.125 5.98438ZM27.7656 10.8125L23.875 7.57812V1.10938C23.875 0.78125 23.5938 0.546875 23.3125 0.546875H20.6875C20.3594 0.546875 20.125 0.78125 20.125 1.10938V4.48438L15.9062 1.01562C15.5781 0.734375 14.9219 0.546875 14.4531 0.546875C14.0312 0.546875 13.375 0.734375 13.0469 1.01562L1.1875 10.8125C1.04688 10.9062 0.953125 11.0938 0.953125 11.2344C0.953125 11.375 1.04688 11.5156 1.09375 11.6094L2.3125 13.0625C2.40625 13.1562 2.59375 13.25 2.73438 13.25C2.82812 13.25 3.01562 13.2031 3.10938 13.1094L14.125 4.0625C14.2188 3.96875 14.3594 3.92188 14.5 3.92188C14.5938 3.92188 14.7344 3.96875 14.8281 4.0625L25.8438 13.1094C25.9375 13.2031 26.125 13.25 26.2188 13.25C26.3594 13.25 26.5469 13.1562 26.6406 13.0625L27.8594 11.6094C27.9062 11.5156 28 11.375 28 11.2344C28 11.0938 27.9062 10.9062 27.7656 10.8125Z" fill="#24A19C"/>
</svg>
