<svg width="20" height="21" viewBox="0 0 20 21" fill="none" xmlns="http://www.w3.org/2000/svg">
<path d="M9.6875 0.8125C4.33594 0.8125 0 5.14844 0 10.5C0 15.8516 4.33594 20.1875 9.6875 20.1875C15.0391 20.1875 19.375 15.8516 19.375 10.5C19.375 5.14844 15.0391 0.8125 9.6875 0.8125ZM9.6875 4.5625C11.5625 4.5625 13.125 6.125 13.125 8C13.125 9.91406 11.5625 11.4375 9.6875 11.4375C7.77344 11.4375 6.25 9.91406 6.25 8C6.25 6.125 7.77344 4.5625 9.6875 4.5625ZM9.6875 18C7.38281 18 5.3125 16.9844 3.94531 15.3438C4.6875 13.9766 6.13281 13 7.8125 13C7.89062 13 7.96875 13.0391 8.08594 13.0781C8.59375 13.2344 9.10156 13.3125 9.6875 13.3125C10.2344 13.3125 10.7812 13.2344 11.25 13.0781C11.3672 13.0391 11.4453 13 11.5625 13C13.2031 13 14.6484 13.9766 15.3906 15.3438C14.0234 16.9844 11.9531 18 9.6875 18Z" fill="#24A19C" fill-opacity="0.5"/>
</svg>
